<svg xmlns="http://www.w3.org/2000/svg" width="256" height="256" viewBox="0 0 100 100"><rect width="100" height="100" rx="20" fill="#7d6ee7"></rect><path d="M22.32 67.93L22.32 67.93Q27.14 67.93 29.62 65.73Q32.11 63.54 32.11 60.08L32.11 60.08Q32.11 57.06 30.20 55.18Q28.29 53.31 24.19 52.09L24.19 52.09L17.92 50.22Q13.32 48.85 10.69 46.18Q8.06 43.52 8.06 38.98L8.06 38.98Q8.06 36.25 9.10 34.05Q10.15 31.86 12.09 30.34Q14.04 28.83 16.74 28.00Q19.44 27.18 22.82 27.18L22.82 27.18Q25.70 27.18 28.18 27.64Q30.67 28.11 32.50 28.94Q34.34 29.77 35.35 30.78Q36.36 31.78 36.36 32.86L36.36 32.86Q36.36 33.87 35.85 34.59Q35.35 35.31 34.56 35.74L34.56 35.74Q32.68 34.30 29.70 33.22Q26.71 32.14 23.04 32.14L23.04 32.14Q18.79 32.14 16.38 33.94Q13.96 35.74 13.96 38.98L13.96 38.98Q13.96 41.50 15.69 43.09Q17.42 44.67 21.45 45.82L21.45 45.82L25.84 47.12Q31.53 48.78 34.81 51.76Q38.08 54.75 38.08 60.08L38.08 60.08Q38.08 65.77 33.98 69.30Q29.88 72.82 22.32 72.82L22.32 72.82Q19.00 72.82 16.30 72.25Q13.60 71.67 11.70 70.74Q9.79 69.80 8.74 68.68Q7.70 67.57 7.70 66.49L7.70 66.49Q7.70 65.26 8.46 64.44Q9.21 63.61 10.22 63.25L10.22 63.25Q11.01 64.04 12.16 64.87Q13.32 65.70 14.83 66.38Q16.34 67.06 18.21 67.50Q20.08 67.93 22.32 67.93ZM72.79 60.51L72.79 60.51Q72.28 60.87 71.46 61.16Q70.63 61.45 69.62 61.45L69.62 61.45Q68.47 61.45 67.57 61.09Q66.67 60.73 66.31 59.94L66.31 59.94Q62.42 51.87 59.61 45.18Q56.80 38.48 55.08 34.09L55.08 34.09L54.79 34.09Q54.57 39.49 54.32 44.13Q54.07 48.78 53.78 53.20Q53.49 57.63 53.20 62.17Q52.92 66.70 52.63 71.89L52.63 71.89Q52.20 72.03 51.51 72.18Q50.83 72.32 50.04 72.32L50.04 72.32Q48.45 72.32 47.80 71.67Q47.16 71.02 47.16 69.80L47.16 69.80Q47.16 69.08 47.26 66.70Q47.37 64.33 47.59 60.94Q47.80 57.56 48.06 53.46Q48.31 49.35 48.63 45.10Q48.96 40.86 49.28 36.75Q49.60 32.65 49.89 29.26L49.89 29.26Q50.47 28.76 51.55 28.33Q52.63 27.90 54.00 27.90L54.00 27.90Q57.31 27.90 58.60 30.56L58.60 30.56Q59.97 33.37 61.38 36.50Q62.78 39.63 64.18 42.87Q65.59 46.11 66.92 49.28Q68.25 52.45 69.48 55.33L69.48 55.33L69.76 55.33Q71.35 51.51 72.93 47.80Q74.52 44.10 76.03 40.64Q77.54 37.18 78.91 34.16Q80.28 31.14 81.36 28.62L81.36 28.62Q82.00 28.26 83.01 28.08Q84.02 27.90 84.88 27.90L84.88 27.90Q88.27 27.90 88.77 30.20L88.77 30.20Q89.06 31.50 89.42 34.48Q89.78 37.47 90.14 41.36Q90.50 45.25 90.82 49.71Q91.15 54.18 91.44 58.32Q91.72 62.46 91.94 65.95Q92.16 69.44 92.30 71.46L92.30 71.46Q91.00 72.32 89.28 72.32L89.28 72.32Q88.20 72.32 87.37 71.78Q86.54 71.24 86.40 69.80L86.40 69.80Q86.04 64.54 85.75 59.36Q85.46 54.18 85.21 49.50Q84.96 44.82 84.74 40.89Q84.52 36.97 84.38 34.23L84.38 34.23L84.09 34.23Q83.30 36.25 82.26 38.77Q81.21 41.29 79.81 44.46Q78.40 47.62 76.68 51.62Q74.95 55.62 72.79 60.51Z" fill="#fff"></path></svg>